<?xml version="1.0" standalone="no"?>
<!DOCTYPE svg PUBLIC "-//W3C//DTD SVG 1.1//EN" "http://www.w3.org/Graphics/SVG/1.1/DTD/svg11.dtd" >
<svg xmlns="http://www.w3.org/2000/svg" xmlns:xlink="http://www.w3.org/1999/xlink" version="1.1">
<metadata>
Created by FontForge 20170731 at Fri Aug 26 01:20:51 2005
 By ,,,
Generated by Fontographer 4.1
</metadata>
<defs>
<font id="MTV2C" horiz-adv-x="503" >
  <font-face 
    font-family="MTV2C"
    font-weight="400"
    font-stretch="normal"
    units-per-em="1000"
    panose-1="0 0 4 0 0 0 0 0 0 0"
    ascent="800"
    descent="-200"
    x-height="416"
    cap-height="575"
    bbox="20 -183 839 810"
    underline-thickness="20"
    underline-position="-163"
    unicode-range="U+0020-007A"
  />
<missing-glyph horiz-adv-x="500" 
d="M63 0v810h375v-810h-375zM125 63h250v685h-250v-685z" />
    <glyph glyph-name=".notdef" horiz-adv-x="500" 
d="M63 0v810h375v-810h-375zM125 63h250v685h-250v-685z" />
    <glyph glyph-name=".null" horiz-adv-x="0" 
 />
    <glyph glyph-name="nonmarkingreturn" horiz-adv-x="239" 
 />
    <glyph glyph-name="space" unicode=" " horiz-adv-x="239" 
 />
    <glyph glyph-name="exclam" unicode="!" horiz-adv-x="222" 
d="M237 575l-17 -375h-129v375h146zM237 0h-152v136h152v-136z" />
    <glyph glyph-name="quotedbl" unicode="&#x22;" horiz-adv-x="405" 
d="M416 393h-124v244h124v-244zM222 393h-124v244h124v-244z" />
    <glyph glyph-name="numbersign" unicode="#" horiz-adv-x="518" 
d="M541 450v-85h-86q-22 -66 -22 -111v-42q18 -2 39 -2t46 2q-6 -53 -6 -87q-41 2 -86 -2q-12 -41 -23 -123h-89q12 70 11 125h-99q-5 -42 -17 -126h-78q-11 13 -11 28q0 17 5 48q5 35 6 48q-12 3 -33 3q-20 0 -47 -3q7 54 5 81q26 6 81 6q22 65 22 113v40q-18 2 -40 2
q-21 0 -45 -2q8 72 8 74q0 3 -8 12h92q11 45 22 138h90q-11 -67 -12 -137h99l18 137h95q-6 -35 -17 -137h80zM358 364h-107q-11 -85 -17 -153h107z" />
    <glyph glyph-name="dollar" unicode="$" horiz-adv-x="516" 
d="M541 138q-14 -10 -40.5 -40t-46.5 -40q-13 -7 -36 -5q-45 4 -38 4q-9 -21 -6 -57h-135v54h-160v130h308v95h-227q-31 28 -88 82v185q41 43 63 60q38 29 77 29q11 0 22 -2q7 21 5 51h135v-49h143v-130h-286v-89h232q11 0 78 -70v-208z" />
    <glyph glyph-name="percent" unicode="%" horiz-adv-x="665" 
d="M694 139q0 -6 1.5 -20t1.5 -21q-1 -27 -36 -63q-23 -24 -43 -35q-3 -1 -58 -1q-45 0 -54 4q-21 9 -75 66v139q57 61 69 67q8 4 60 4q4 0 17 1q14 1 23 0q11 0 18 -4q48 -29 74 -73q2 -5 2 -64zM551 575l-281 -593h-78l275 593h84zM317 366q-55 -59 -73 -67q-7 -3 -56 -3
q-2 0 -20 -2q-11 -1 -20 0q-11 0 -18 4q-48 29 -74 74q-2 4 -2 64q0 5 -2 19t-1 22q0 24 36 61q23 23 43 35q5 4 17 4q9 1 23 0t18 -1q45 0 54 -4q22 -10 75 -67v-139zM608 80v118h-90v-118h90zM230 377v118h-89v-118h89z" />
    <glyph glyph-name="ampersand" unicode="&#x26;" horiz-adv-x="637" 
d="M670 240h-65v-240h-406q-27 23 -82 75v180q18 11 51 44l-45 45v156q76 76 95 76h332v-122h-280v-98h400v-116zM465 114v124h-193v-124h193z" />
    <glyph glyph-name="quotesingle" unicode="'" horiz-adv-x="265" 
d="M274 370h-124v250h124v-250z" />
    <glyph glyph-name="parenleft" unicode="(" horiz-adv-x="426" 
d="M446 0h-105q-57 0 -103 90q-37 73 -37 119v187q0 52 37 119q46 84 115 84h93v-67h-47q-25 0 -48 -56q-19 -46 -19 -61v-224q0 -21 19 -67q23 -56 48 -56h47v-68z" />
    <glyph glyph-name="parenright" unicode=")" horiz-adv-x="315" 
d="M323 207q0 -46 -38 -119q-46 -88 -103 -88h-104v68h47q40 0 68 124v221q0 26 -21 68q-25 50 -59 50h-35v68h93q66 0 114 -85q38 -67 38 -117v-190z" />
    <glyph glyph-name="asterisk" unicode="*" horiz-adv-x="505" 
d="M541 528l-97 -62l63 -86l-61 -48l-68 91l-62 -91l-66 42l63 91l-98 58l43 66l84 -46v91h77v-91l80 46z" />
    <glyph glyph-name="plus" unicode="+" horiz-adv-x="544" 
d="M579 283h-169v-177h-92v174h-172v93h171v177h90v-174h172v-93z" />
    <glyph glyph-name="comma" unicode="," horiz-adv-x="279" 
d="M291 -108h-95v106h-57v138h152v-244z" />
    <glyph glyph-name="hyphen" unicode="-" horiz-adv-x="404" 
d="M408 244h-296v107h296v-107z" />
    <glyph glyph-name="hyphen" unicode="&#x2010;" horiz-adv-x="404" 
d="M408 244h-296v107h296v-107z" />
    <glyph glyph-name="period" unicode="." horiz-adv-x="272" 
d="M284 -2h-153v135h153v-135z" />
    <glyph glyph-name="slash" unicode="/" horiz-adv-x="517" 
d="M554 638l-258 -638h-147l264 638h141z" />
    <glyph glyph-name="zero" unicode="0" 
d="M538 82q-31 -28 -87 -82h-282l-87 87v402q22 25 56 58q30 30 50 30h250q13 0 100 -88v-407zM395 126v324h-164v-324h164z" />
    <glyph glyph-name="one" unicode="1" 
d="M503 -1h-387v107h124v347q-14 2 -124 0v121h267v-465q29 -3 59 -3q31 0 61 3v-110z" />
    <glyph glyph-name="two" unicode="2" 
d="M542 304q-23 -27 -75 -82h-217v-107h292v-115h-433v266q26 26 76 75h204v119h-268v116h321q7 0 100 -81v-191z" />
    <glyph glyph-name="three" unicode="3" 
d="M542 73q-27 -23 -82 -75h-357v116h280v116h-200v124h200v104h-269v116h333q9 0 42 -29q10 -9 52 -46v-163q-13 -14 -45 -45q9 -13 46 -50v-168z" />
    <glyph glyph-name="four" unicode="4" 
d="M561 119h-71q-2 -30 -2 -60q0 -29 2 -60h-150v117h-269v120l236 339h180v-335q18 -3 36 -3q19 0 38 3v-121zM338 239v205l-141 -205h141z" />
    <glyph glyph-name="five" unicode="5" 
d="M540 79q-17 -13 -87 -81h-346v116h286v121h-286v339h410v-116h-263v-107h210q24 -26 76 -81v-191z" />
    <glyph glyph-name="six" unicode="6" 
d="M551 82q-29 -27 -87 -82h-275q-10 0 -42 33l-52 54v403q7 6 50 49q39 38 56 38h327v-116h-286v-102h233q27 -23 76 -69v-208zM408 115v141h-164v-141h164z" />
    <glyph glyph-name="seven" unicode="7" 
d="M542 360q-57 -57 -171 -172v-189h-159v232q57 54 171 160v62h-291v121h450v-214z" />
    <glyph glyph-name="eight" unicode="8" 
d="M541 75q-53 -53 -82 -76h-293q-27 24 -76 70v185q14 11 45 39q-14 12 -40 33v174q76 76 95 76h244q15 0 50 -31q27 -24 45 -45v-174q-14 -13 -34 -33q14 -14 46 -45v-173zM386 342v130h-147v-130h147zM397 102v130h-164v-130h164z" />
    <glyph glyph-name="nine" unicode="9" 
d="M541 87l-87 -87h-340v116h285v95h-233q-1 1 -81 82v196q87 88 100 88h256q13 0 100 -88v-402zM398 320v141h-164v-141h164z" />
    <glyph glyph-name="colon" unicode=":" horiz-adv-x="270" 
d="M284 333h-153v139h153v-139zM284 39h-153v135h153v-135z" />
    <glyph glyph-name="semicolon" unicode=";" horiz-adv-x="273" 
d="M291 296h-153v138h153v-138zM291 -107h-96v103q-16 6 -57 6v135h153v-244z" />
    <glyph glyph-name="less" unicode="&#x3c;" horiz-adv-x="538" 
d="M567 467l-274 -159l274 -159l-42 -78l-351 190v88l345 196q16 -27 48 -78z" />
    <glyph glyph-name="equal" unicode="=" horiz-adv-x="549" 
d="M574 336h-433v89h433v-89zM574 153h-433v90h433v-90z" />
    <glyph glyph-name="greater" unicode="&#x3e;" horiz-adv-x="463" 
d="M495 309q-122 -70 -339 -189q-11 1 -28 29q-25 41 -27 43l275 159q-47 31 -274 159q11 26 47 84q120 -72 346 -195v-90z" />
    <glyph glyph-name="question" unicode="?" horiz-adv-x="577" 
d="M613 353l-81 -87h-111v-68h-139v89l76 81h106v96h-284v110h334l99 -93v-128zM435 -2h-158v136h158v-136z" />
    <glyph glyph-name="at" unicode="@" horiz-adv-x="678" 
d="M698 336q0 -43 -45 -102q-51 -67 -111 -76q-7 -1 -38 -1q-36 0 -41 2q-25 7 -48 44l-90 -46q-101 7 -101 123q0 85 48 143.5t132 64.5l128 -24l-45 -204q16 -23 31 -23q43 0 66 58q17 43 17 96q0 49 -12 77q-14 33 -51 59q-42 30 -72 30h-107q-46 0 -104.5 -52.5
t-74.5 -99.5l-19 -56v-121q0 -6 10.5 -27t13.5 -29q13 -30 65 -59.5t86 -29.5h148l139 45l24 -72l-197 -53h-154q-5 0 -14.5 4.5t-14.5 4.5q-64 4 -133.5 73.5t-69.5 132.5v135q0 6 11 39q15 44 16 49q22 81 112 143q87 59 173 59h85q18 0 62 -14q40 -12 60 -23
q66 -34 102 -109q13 -27 13 -39v-122zM424 376v20h-36q-23 0 -47.5 -29.5t-24.5 -53.5v-38q0 -9 12.5 -20.5t21.5 -11.5q33 0 57 70q17 49 17 63z" />
    <glyph glyph-name="A" unicode="A" horiz-adv-x="556" 
d="M569 -2h-153v159h-170v-159h-156v483q94 93 112 93h261q14 0 106 -93v-483zM414 278v170h-169v-170h169z" />
    <glyph glyph-name="B" unicode="B" horiz-adv-x="539" 
d="M554 79q-81 -81 -100 -81h-390v576h390q12 0 94 -76v-174q-15 -6 -39 -33q16 -25 45 -44v-168zM393 352v96h-175v-96h175zM393 124v107h-175v-107h175z" />
    <glyph glyph-name="C" unicode="C" horiz-adv-x="490" 
d="M524 375h-141v73h-166v-323h307v-127h-363q-32 29 -99 87v402l64 54q39 33 48 33h350v-199z" />
    <glyph glyph-name="D" unicode="D" horiz-adv-x="546" 
d="M554 92q-92 -92 -112 -92h-373v576h373q19 0 112 -93v-391zM393 126v324h-169v-324h169z" />
    <glyph glyph-name="E" unicode="E" horiz-adv-x="485" 
d="M510 -2h-416v576h416v-127h-263v-93h246v-125h-246v-104h263v-127z" />
    <glyph glyph-name="F" unicode="F" horiz-adv-x="490" 
d="M525 447h-263v-93h246v-122h-243v-234h-156v576h416v-127z" />
    <glyph glyph-name="G" unicode="G" horiz-adv-x="524" 
d="M544 0h-392q-30 28 -98 87v402q99 87 112 87h378v-125h-336v-324h183v93q-18 2 -40 2q-21 0 -45 -2v110h238v-330z" />
    <glyph glyph-name="H" unicode="H" horiz-adv-x="540" 
d="M552 0h-158v227h-170v-227h-156v576h153v-216h170v216h161v-576z" />
    <glyph glyph-name="I" unicode="I" horiz-adv-x="247" 
d="M259 0h-153v575h153v-575z" />
    <glyph glyph-name="J" unicode="J" horiz-adv-x="517" 
d="M523 88q-32 -30 -93 -88h-282q-25 19 -98 93v175h153v-141h160v323h-256v127h416v-489z" />
    <glyph glyph-name="K" unicode="K" horiz-adv-x="531" 
d="M548 0h-159v144q-21 23 -90 79h-80v-223h-155v576h153v-212q8 -5 40 -5q34 0 36 1q33 17 51 32q51 41 51 97q0 15 -3 43.5t-3 43.5h153v-175q-38 -32 -119 -102l125 -107v-192z" />
    <glyph glyph-name="L" unicode="L" horiz-adv-x="489" 
d="M524 0h-416v576h153v-449h263v-127z" />
    <glyph glyph-name="M" unicode="M" horiz-adv-x="832" 
d="M839 -2h-159v447q-3 4 -23 4t-67 -44q-14 -13 -59 -57v-350h-153v350q-34 33 -102 101h-45v-451h-156v576h253q18 0 126 -108q40 37 119 108h266v-576z" />
    <glyph glyph-name="N" unicode="N" horiz-adv-x="545" 
d="M558 -2h-158v450h-170v-450h-156v576h373q11 0 57 -41q36 -32 54 -52v-483z" />
    <glyph glyph-name="O" unicode="O" horiz-adv-x="532" 
d="M539 88q-32 -26 -92 -88h-300q-32 30 -98 88v402q99 87 112 87h267q20 0 53 -35q40 -42 58 -52v-402zM385 127v324h-181v-324h181z" />
    <glyph glyph-name="P" unicode="P" horiz-adv-x="509" 
d="M541 270q-30 -30 -88 -87h-230v-183h-156v576h367q13 0 107 -93v-213zM386 303v147h-164v-147h164z" />
    <glyph glyph-name="Q" unicode="Q" horiz-adv-x="514" 
d="M527 99q-7 -5 -44 -45q-27 -29 -49 -41q-13 -7 -35 -5q-44 4 -38 4q-5 -26 -5 -53q0 -25 4 -50h-152v98q-10 3 -35.5 2t-37.5 4q-21 9 -49 37q-43 43 -50 49v402q10 9 63 54q39 33 49 33h267q22 0 58 -38q41 -44 54 -49v-402zM372 138v324h-181v-324h181z" />
    <glyph glyph-name="R" unicode="R" horiz-adv-x="531" 
d="M545 313q-36 -33 -52 -56q9 -13 51 -56v-203h-153v187h-170v-187h-155v576h384q9 0 95 -76v-185zM390 307v141h-170v-141h170z" />
    <glyph glyph-name="S" unicode="S" horiz-adv-x="522" 
d="M546 80q-18 -13 -88 -81h-374v127h308v95h-227q-31 28 -87 82v185q87 87 106 87h338v-127h-291v-90h237q11 0 36 -26q12 -12 42 -44v-208z" />
    <glyph glyph-name="T" unicode="T" horiz-adv-x="514" 
d="M549 451h-157v-451h-156v449h-160v127h473v-125z" />
    <glyph glyph-name="U" unicode="U" horiz-adv-x="535" 
d="M541 88q-29 -24 -92 -88h-286q-9 0 -43 33q-46 44 -58 55v489h153v-450h171v450h155v-489z" />
    <glyph glyph-name="V" unicode="V" horiz-adv-x="521" 
d="M542 387l-138 -384h-191l-144 390v186h153v-168l84 -249q22 51 47 114q36 92 36 107v196h153v-192z" />
    <glyph glyph-name="W" unicode="W" horiz-adv-x="809" 
d="M828 365l-132 -373h-169l-73 251q-44 -125 -78 -251h-175l-132 379v197h153v-179l73 -232q14 24 45.5 109.5t31.5 105.5v196h153v-174l73 -237q20 29 55 152q11 22 22 57v202h153v-203z" />
    <glyph glyph-name="X" unicode="X" horiz-adv-x="534" 
d="M550 -2h-153q1 23 1 40q0 31 -4 42q-7 18 -34 46l-47 48q-30 -22 -43 -34q-27 -25 -44 -56q-7 -13 -7 -30q0 -9 2.5 -28t2.5 -28h-153v135l142 147q-5 5 -85 94q-52 58 -51 67v133h147q-1 -13 -3 -46q-3 -47 41 -88l51 -48q7 10 45 45q26 24 34 40q10 20 8 51l-3 46h147
v-146q-47 -51 -136 -142q43 -45 142 -148v-140z" />
    <glyph glyph-name="Y" unicode="Y" horiz-adv-x="504" 
d="M533 405q0 -6 -154 -189v-218h-154v213q-160 189 -160 207v156h153q-2 -20 -4 -65q-2 -39 6 -68q5 -19 34 -47l43 -42q37 30 49 42q44 44 44 100q0 13 -2 40t-2 40h147v-169z" />
    <glyph glyph-name="Z" unicode="Z" horiz-adv-x="510" 
d="M530 416l-246 -291h246v-127h-428v146l257 286v17h-256v127h427v-158z" />
    <glyph glyph-name="bracketleft" unicode="[" horiz-adv-x="333" 
d="M356 -2h-244v678h244v-78h-119v-519h119v-81z" />
    <glyph glyph-name="backslash" unicode="\" horiz-adv-x="403" 
d="M432 0h-141l-258 638h141z" />
    <glyph glyph-name="bracketright" unicode="]" horiz-adv-x="306" 
d="M313 -2h-238v78h118v513h-118v87h238v-678z" />
    <glyph glyph-name="asciicircum" unicode="^" horiz-adv-x="517" 
d="M531 332h-67l-101 233l-96 -233h-72l138 318h60z" />
    <glyph glyph-name="underscore" unicode="_" horiz-adv-x="748" 
d="M752 0h-688v113h688v-113z" />
    <glyph glyph-name="grave" unicode="`" horiz-adv-x="236" 
d="M253 541h-95l-128 112h107z" />
    <glyph glyph-name="a" unicode="a" horiz-adv-x="479" 
d="M487 -2h-358q-51 47 -56 56q-9 16 -9 75q0 52 4 61q6 13 55 70h222v67h-251v110h304q14 0 89 -76v-363zM344 107v61h-130v-61h130z" />
    <glyph glyph-name="b" unicode="b" horiz-adv-x="467" 
d="M490 75q-75 -75 -95 -75h-332v598h146v-159h200q26 -27 81 -76v-288zM341 109v215h-130v-215h130z" />
    <glyph glyph-name="c" unicode="c" horiz-adv-x="420" 
d="M442 256h-115q2 18 2 35q0 18 -2 34h-112v-216h227v-110h-294q-43 45 -76 69v294q76 76 95 76h275v-182z" />
    <glyph glyph-name="d" unicode="d" horiz-adv-x="473" 
d="M482 0h-346q-26 26 -76 69v294q73 76 95 76h179v159h148v-598zM333 109v215h-129v-215h129z" />
    <glyph glyph-name="e" unicode="e" horiz-adv-x="470" 
d="M479 169h-275v-59h263v-110h-329q-43 45 -76 69v294q76 76 95 76h227q30 0 95 -76v-194zM335 257v79h-129v-79h129z" />
    <glyph glyph-name="f" unicode="f" horiz-adv-x="364" 
d="M387 326h-111v-326h-144v323q-27 2 -49 2q-21 0 -37 -2v98h80q4 20 3 64t4 66q2 10 25.5 29t33.5 19h190v-99q-28 2 -55 2q-28 0 -54 -2v-76q30 -3 59 -3q28 0 55 3v-98z" />
    <glyph glyph-name="g" unicode="g" horiz-adv-x="469" 
d="M477 -119q-20 -21 -64 -64h-352v110h269v72h-205q-23 18 -70 65v276q76 76 89 76h333v-535zM328 103v198h-130v-198h130z" />
    <glyph glyph-name="h" unicode="h" horiz-adv-x="469" 
d="M492 -1h-150v326h-122v-326h-149v598h147v-159h187q30 -27 87 -82v-357z" />
    <glyph glyph-name="i" unicode="i" horiz-adv-x="202" 
d="M212 490h-147v107h147v-107zM212 -1h-147v438h147v-438z" />
    <glyph glyph-name="j" unicode="j" horiz-adv-x="242" 
d="M252 479h-147v107h147v-107zM253 -120l-53 -53h-180v101h85v498h148v-546z" />
    <glyph glyph-name="k" unicode="k" horiz-adv-x="449" 
d="M470 0h-141q-1 17 0 31q2 20 3 33q0 63 -71 107h-57v-171h-149v598h147v-297q9 -5 40 -5q34 0 36 1q51 31 53 78q0 11 -1 32.5t-1 30.5h136v-134q-30 -27 -86 -73q27 -27 91 -79v-152z" />
    <glyph glyph-name="l" unicode="l" horiz-adv-x="262" 
d="M280 0h-174q-53 43 -53 66v533h142v-489q21 -2 42 -2t43 2v-110z" />
    <glyph glyph-name="m" unicode="m" horiz-adv-x="712" 
d="M732 -2h-150v326h-110v-326h-153v326h-110v-326h-150v439h573q15 0 100 -82v-357z" />
    <glyph glyph-name="n" unicode="n" horiz-adv-x="478" 
d="M489 0h-150v326h-122v-326h-149v439h321q9 0 50 -36q24 -21 50 -45v-358z" />
    <glyph glyph-name="o" unicode="o" horiz-adv-x="479" 
d="M489 75q-27 -23 -82 -76h-265q-42 45 -76 70v294q76 76 95 76h233q9 0 42 -29l53 -47v-288zM340 109v215h-130v-215h130z" />
    <glyph glyph-name="p" unicode="p" horiz-adv-x="489" 
d="M501 75q-26 -23 -81 -75h-197v-160h-149v599h332q13 0 95 -76v-288zM352 109v215h-130v-215h130z" />
    <glyph glyph-name="q" unicode="q" horiz-adv-x="467" 
d="M476 -159h-147v159h-199q-42 45 -76 70v294q73 76 95 76h327v-599zM327 110v215h-129v-215h129z" />
    <glyph glyph-name="r" unicode="r" horiz-adv-x="436" 
d="M466 232h-125v87q-3 4 -26 4q-20 0 -37 -12l-46 -32v-281h-142v438h136q0 -37 4 -50q61 51 69 51h167v-205z" />
    <glyph glyph-name="s" unicode="s" horiz-adv-x="444" 
d="M454 70q-46 -47 -64 -70h-335v110h252v55h-194q-8 9 -58 59v139q76 76 89 76h287v-116h-234v-44h187l70 -70v-139z" />
    <glyph glyph-name="t" unicode="t" horiz-adv-x="389" 
d="M417 324h-141v-216h136v-110h-232q-9 14 -47 52v271q-18 2 -37 2q-18 0 -37 -2v98h71q2 29 2 59q0 31 -2 61h144v-117h143v-98z" />
    <glyph glyph-name="u" unicode="u" horiz-adv-x="486" 
d="M493 -4h-340q-76 75 -76 89v349h145v-331h127v331h144v-438z" />
    <glyph glyph-name="v" unicode="v" horiz-adv-x="466" 
d="M481 263l-127 -264h-163l-126 264v174h142v-138l66 -169q36 71 72 158v149h136v-174z" />
    <glyph glyph-name="w" unicode="w" horiz-adv-x="678" 
d="M693 269l-121 -270h-140q-5 21 -29 83l-38 99q-22 -60 -73 -182h-140l-115 259v179h142v-157q0 -8 22 -58q29 -66 34 -81h4q28 67 55 147v149h142v-151q20 -47 56 -145h5q60 124 60 147v149h136v-168z" />
    <glyph glyph-name="x" unicode="x" horiz-adv-x="474" 
d="M487 2h-148q2 15 2 26q0 66 -62 110q-63 -36 -63 -104q0 -12 2 -32h-147v100l108 114q-14 17 -103 107v117h142q-2 -25 -3 -40q-2 -43 28 -70l36 -32q25 22 32 29q19 19 26 33q4 9 5 23q0 10 -1 29.5t-1 27.5h141v-111l-108 -108l114 -119v-100z" />
    <glyph glyph-name="y" unicode="y" horiz-adv-x="479" 
d="M487 -119q-20 -21 -64 -64h-346v116h269v66h-211q-64 65 -64 78v339h145v-309h127v309h144v-535z" />
    <glyph glyph-name="z" unicode="z" horiz-adv-x="429" 
d="M447 -1h-382v112l200 211h-200v115h370v-117l-194 -212h206v-109z" />
    <glyph glyph-name="glyph94" horiz-adv-x="239" 
 />
    <glyph glyph-name="glyph95" horiz-adv-x="239" 
 />
    <glyph glyph-name="glyph94" horiz-adv-x="239" 
 />
    <glyph glyph-name="glyph95" horiz-adv-x="239" 
 />
  </font>
</defs>
</svg>
